<svg width="88" height="90" viewBox="0 0 88 90" fill="none" xmlns="http://www.w3.org/2000/svg">
<path d="M6.23734 83.47V72.4H8.03734V83.884L5.94934 85.09H2.47534L0.387344 83.884V80.95H2.18734V83.47H6.23734ZM12.4862 81.31V83.524H16.1042V81.31H12.4862ZM12.8282 85.09L10.7402 83.884V80.95L12.8282 79.744H16.1042V77.566H11.6402V76H15.7622L17.8502 77.206V85.09H17.3822L16.1042 84.352L14.8262 85.09H12.8282ZM21.363 76L24.009 83.344H24.045L26.709 76H28.419L25.089 85H22.983L19.653 76H21.363ZM31.6112 81.31V83.524H35.2292V81.31H31.6112ZM31.9532 85.09L29.8652 83.884V80.95L31.9532 79.744H35.2292V77.566H30.7652V76H34.8872L36.9752 77.206V85.09H36.5072L35.2292 84.352L33.9512 85.09H31.9532ZM40.038 78.34V73.516L42.126 72.31H46.32L48.408 73.516V75.37H46.608V73.93H41.838V77.746H46.32L48.408 78.952V83.884L46.32 85.09H41.946L39.858 83.884V82.03H41.658V83.47H46.608V79.546H42.126L40.038 78.34ZM53.2055 77.566V83.434H58.2095V85H53.5475L51.4595 83.794V77.206L53.5475 76H58.2095V77.566H53.2055ZM65.7452 77.566H62.4692V85H60.7232V76H62.0372L62.4692 76.738L63.7472 76H65.7452V77.566ZM69.4653 76V85H67.7193V76H69.4653ZM67.6293 73.786V71.86H69.5553V73.786H67.6293ZM78.0843 85.09H75.3663L74.0883 84.352V88.6H72.3423V75.91H73.6563L74.0883 76.648L75.3663 75.91H78.0843L80.1723 77.116V83.884L78.0843 85.09ZM74.0883 77.476V83.524H78.4263V77.476H74.0883ZM82.3274 77.566V76H83.9834V74.488L85.7294 73.48V76H87.8894V77.566H85.7294V83.434H87.8894V85H86.0714L83.9834 83.794V77.566H82.3274Z" fill="#FFFDFD"/>
<path d="M14 0C34.0135 0 53.9865 0 74 0C74 20.0135 74 40.027 74 60C54.027 60 34.0135 60 14 60C14 39.946 14 19.973 14 0ZM67.6799 31.7623C66.4645 29.5746 64.8035 28.0756 62.4132 27.549C60.7117 27.1438 59.0101 27.1438 57.3086 27.5084C51.7988 28.6428 49.449 35.287 53.0142 39.7029C54.2701 41.2424 55.9311 42.1742 57.6732 42.9845C59.2127 43.7137 60.7927 44.4024 62.3322 45.1722C63.3855 45.6989 63.8312 46.6712 63.7097 47.8461C63.5881 49.0209 62.7778 49.6691 61.765 50.0338C59.4963 50.844 56.8629 50.1148 55.3234 48.2107C54.9993 47.8055 54.6752 47.3599 54.3511 46.9142C52.8116 47.8055 51.3126 48.6563 49.8136 49.5476C50.7454 51.3707 52.0419 52.8292 53.8244 53.8015C56.8629 55.4625 60.0635 55.7056 63.345 54.8953C65.4922 54.3687 67.3153 53.2748 68.4497 51.2897C70.5564 47.5219 69.341 42.8224 65.6138 40.5132C63.9527 39.5003 62.0891 38.8116 60.3471 37.9203C59.4963 37.4747 58.605 37.0695 57.8758 36.5024C56.5793 35.449 56.8224 33.3423 58.2809 32.5321C59.6988 31.7218 61.684 32.208 62.7778 33.6259C63.0209 33.9095 63.183 34.2336 63.4261 34.5577C64.8035 33.6259 66.2215 32.6941 67.6799 31.7623ZM29.8001 50.1553C30.6104 51.8974 31.7853 53.2748 33.4463 54.1661C35.5935 55.341 37.9433 55.5436 40.3336 55.1789C42.4808 54.8548 44.2633 53.8825 45.4382 51.9379C46.4105 50.3174 46.6941 48.5348 46.6941 46.6307C46.6941 40.4727 46.6941 34.3147 46.6941 28.1567C46.6941 27.9946 46.6941 27.792 46.6941 27.5895C44.79 27.5895 42.9669 27.5895 41.0628 27.5895C41.0628 27.8325 41.0628 28.0351 41.0628 28.2782C41.0628 34.3552 41.0628 40.3916 41.0628 46.4686C41.0628 47.0358 41.0223 47.6435 40.9413 48.2107C40.7792 49.1425 40.293 49.8312 39.3612 50.1148C37.6192 50.6415 36.2012 50.1148 35.1884 48.6158C34.9453 48.2107 34.7022 47.8055 34.4186 47.4004C32.8386 48.3322 31.3396 49.2235 29.8001 50.1553Z" fill="#B5E93B"/>
</svg>
