<svg width="119" height="22" viewBox="0 0 119 22" fill="none" xmlns="http://www.w3.org/2000/svg">
<path d="M1.26 8.81988V5.06788L2.884 4.12988H6.146L7.77 5.06788V6.50988H6.37V5.38988H2.66V8.35788H6.146L7.77 9.29588V13.1319L6.146 14.0699H2.744L1.12 13.1319V11.6899H2.52V12.8099H6.37V9.75788H2.884L1.26 8.81988ZM11.5014 13.9999H10.1434V3.77988H11.5014V7.50388L12.4954 6.92988H14.6094L16.2334 7.86788V13.9999H14.8754V8.14788H11.5014V13.9999ZM24.4196 13.1319L22.7956 14.0699H20.0936L18.4696 13.1319V7.86788L20.0936 6.92988H22.7956L24.4196 7.86788V13.1319ZM19.8276 8.14788V12.8519H23.0616V8.14788H19.8276ZM32.3571 13.9999L30.8451 8.65188H30.8171L29.3191 13.9999H27.7091L25.9591 6.99988H27.2191L28.5491 12.4739H28.5771L30.1171 6.99988H31.5591L33.0991 12.4739H33.1271L34.4571 6.99988H35.7171L33.9671 13.9999H32.3571ZM50.3135 7.86788V13.9999H48.9555V8.14788H46.2815V13.9999H44.9235V8.14788H42.2495V13.9999H40.8915V6.92988H41.9135L42.2495 7.50388L43.2435 6.92988H44.6575L45.9595 7.68588L47.2755 6.92988H48.6895L50.3135 7.86788ZM58.0836 12.7819V13.9999H54.1776L52.5536 13.0619V7.86788L54.1776 6.92988H56.4596L58.0836 7.86788V10.9759H53.9116V12.7819H58.0836ZM53.9116 8.14788V9.75788H56.7256V8.14788H53.9116ZM65.5799 13.9999L63.9559 13.0619V3.77988H65.3139V12.7819H66.9939V13.9999H65.5799ZM73.9293 12.7819V13.9999H70.0233L68.3993 13.0619V7.86788L70.0233 6.92988H72.3053L73.9293 7.86788V10.9759H69.7573V12.7819H73.9293ZM69.7573 8.14788V9.75788H72.5713V8.14788H69.7573ZM81.4289 10.7799V13.0619L79.8049 13.9999H76.1649V12.7819H80.0709V11.0599H77.7889L76.1649 10.1219V7.93788L77.7889 6.99988H81.2889V8.21788H77.5229V9.84188H79.8049L81.4289 10.7799ZM88.9348 10.7799V13.0619L87.3108 13.9999H83.6708V12.7819H87.5768V11.0599H85.2948L83.6708 10.1219V7.93788L85.2948 6.99988H88.7948V8.21788H85.0288V9.84188H87.3108L88.9348 10.7799Z" fill="#B5E93B"/>
<path d="M0 15.3999H90.0548V16.0999H0V15.3999Z" fill="#B5E93B"/>
<path d="M100.629 14.6314L108.557 2.88502L114.8 14.7638L100.629 14.6314Z" fill="#B5E93B"/>
</svg>
