<svg width="87" height="110" viewBox="0 0 87 110" fill="none" xmlns="http://www.w3.org/2000/svg">
<path d="M8.09914 81.85H9.89914V83.884L7.81114 85.09H3.07714L0.989141 83.884V73.516L3.07714 72.31H7.81114L9.89914 73.516V75.55H8.09914V73.93H2.78914V83.47H8.09914V81.85ZM14.5258 85H12.7798V71.86H14.5258V76.648L15.8038 75.91H18.5218L20.6098 77.116V85H18.8638V77.476H14.5258V85ZM24.8709 81.31V83.524H28.4889V81.31H24.8709ZM25.2129 85.09L23.1249 83.884V80.95L25.2129 79.744H28.4889V77.566H24.0249V76H28.1469L30.2349 77.206V85.09H29.7669L28.4889 84.352L27.2109 85.09H25.2129ZM35.2057 85L33.1177 83.794V71.86H34.8637V83.434H37.0237V85H35.2057ZM40.9186 85L38.8306 83.794V71.86H40.5766V83.434H42.7366V85H40.9186ZM51.6535 83.434V85H46.6315L44.5435 83.794V77.116L46.6315 75.91H49.5655L51.6535 77.116V81.112H46.2895V83.434H51.6535ZM46.2895 77.476V79.546H49.9075V77.476H46.2895ZM62.1779 77.116V85H60.4319V77.476H56.2739V85H54.5279V75.91H55.8419L56.2739 76.648L57.5519 75.91H60.0899L62.1779 77.116ZM66.8032 85L65.0572 83.992V82.372L66.3352 81.634L65.0572 80.896V77.206L67.1452 76H72.8872V76.612L71.2492 77.566L72.3472 78.214V80.698L70.2592 81.904H66.8032V83.434H70.7992L72.8872 84.64V87.484L70.7992 88.69H66.7852L64.6972 87.484V86.368L66.4432 85.36V87.16H71.1412V85H66.8032ZM66.8032 77.53V80.374H70.6012V77.53H66.8032ZM82.5207 83.434V85H77.4987L75.4107 83.794V77.116L77.4987 75.91H80.4327L82.5207 77.116V81.112H77.1567V83.434H82.5207ZM77.1567 77.476V79.546H80.7747V77.476H77.1567ZM45.0647 99.116V107H43.3187V99.476H39.8807V107H38.1347V99.476H34.6967V107H32.9507V97.91H34.2647L34.6967 98.648L35.9747 97.91H37.7927L39.4667 98.882L41.1587 97.91H42.9767L45.0647 99.116ZM55.0549 105.434V107H50.0329L47.9449 105.794V99.116L50.0329 97.91H52.9669L55.0549 99.116V103.112H49.6909V105.434H55.0549ZM49.6909 99.476V101.546H53.3089V99.476H49.6909Z" fill="#FFFDFD"/>
<path d="M15 5.00507C15 2.79313 16.7886 1 18.9949 1L69.7631 0.999999C71.9694 0.999999 73.758 2.79313 73.758 5.00507L73.758 54.9949C73.758 57.2069 71.9694 59 69.7631 59L18.9949 59C16.7886 59 15 57.2069 15 54.9949L15 5.00507Z" fill="#FFFDFD"/>
<path d="M41.6805 38.6883C41.6805 37.6088 41.7039 36.6936 41.7507 35.9426C41.8131 35.1917 41.9458 34.5111 42.1486 33.901C42.3515 33.3065 42.6558 32.7589 43.0615 32.2583C43.4673 31.742 44.0369 31.1945 44.7703 30.6156C45.3009 30.1306 45.8314 29.6222 46.362 29.0902C46.8926 28.5427 47.3764 27.9794 47.8133 27.4006C48.2346 26.8374 48.578 26.2585 48.8432 25.664C49.1085 25.0695 49.2412 24.475 49.2412 23.8805C49.2412 23.1609 49.1397 22.5429 48.9369 22.0266C48.734 21.4947 48.4453 21.0566 48.0708 20.7124C47.6807 20.3995 47.2047 20.1649 46.6429 20.0084C46.0967 19.852 45.4647 19.7738 44.7469 19.7738C44.1851 19.7738 43.6389 19.852 43.1083 20.0084C42.5778 20.1492 42.1096 20.3839 41.7039 20.7124C41.2825 21.041 40.9392 21.4634 40.6739 21.9797C40.4243 22.4959 40.2916 23.1139 40.276 23.8336L33.7452 23.8336C33.7608 22.2378 34.0573 20.8532 34.6347 19.6799C35.2121 18.4909 35.9924 17.5053 36.9755 16.723C37.9586 15.9408 39.1134 15.3619 40.4399 14.9864C41.7663 14.5953 43.202 14.3998 44.7469 14.3998C46.4791 14.3998 48.0318 14.5953 49.405 14.9864C50.7783 15.3776 51.9409 15.9564 52.8928 16.723C53.8291 17.5053 54.5469 18.4674 55.0463 19.6095C55.5457 20.7516 55.7953 22.0735 55.7953 23.5754C55.7953 24.6862 55.6081 25.7031 55.2336 26.6262C54.859 27.5336 54.3753 28.3784 53.7823 29.1606C53.1893 29.9585 52.5105 30.7173 51.7458 31.4369C50.9968 32.141 50.2399 32.8293 49.4753 33.5021C49.0071 33.9714 48.6404 34.386 48.3751 34.7458C48.1098 35.1057 47.9225 35.4733 47.8133 35.8488C47.6885 36.2243 47.6104 36.6388 47.5792 37.0925C47.548 37.5306 47.5324 38.0625 47.5324 38.6883L41.6805 38.6883ZM40.7208 45.7989C40.7208 44.7663 41.0563 43.9058 41.7273 43.2175C42.3983 42.5135 43.3268 42.1615 44.5128 42.1615C45.6676 42.1615 46.5883 42.5135 47.2749 43.2175C47.9772 43.9058 48.3283 44.7663 48.3283 45.7989C48.3283 46.8001 47.9772 47.645 47.2749 48.3333C46.5883 49.0061 45.6676 49.3424 44.5128 49.3424C43.3268 49.3424 42.3983 49.0061 41.7273 48.3333C41.0563 47.645 40.7208 46.8001 40.7208 45.7989Z" fill="#252525"/>
</svg>
