<svg width="90" height="90" viewBox="0 0 90 90" fill="none" xmlns="http://www.w3.org/2000/svg">
<path d="M6.11438 74.02V85H4.31438V74.02H0.732383V72.4H9.69638V74.02H6.11438ZM12.4975 88.6L14.0635 84.586L10.5895 76H12.3355L14.8915 82.408H14.9275L17.4655 76H19.2115L14.2075 88.6H12.4975ZM26.7455 85.09H24.0275L22.7495 84.352V88.6H21.0035V75.91H22.3175L22.7495 76.648L24.0275 75.91H26.7455L28.8335 77.116V83.884L26.7455 85.09ZM22.7495 77.476V83.524H27.0875V77.476H22.7495ZM38.8186 83.434V85H33.7966L31.7086 83.794V77.116L33.7966 75.91H36.7306L38.8186 77.116V81.112H33.4546V83.434H38.8186ZM33.4546 77.476V79.546H37.0726V77.476H33.4546ZM41.8729 78.34V73.516L43.9609 72.31H48.1549L50.2429 73.516V75.37H48.4429V73.93H43.6729V77.746H48.1549L50.2429 78.952V83.884L48.1549 85.09H43.7809L41.6929 83.884V82.03H43.4929V83.47H48.4429V79.546H43.9609L41.8729 78.34ZM55.0405 77.566V83.434H60.0445V85H55.3825L53.2945 83.794V77.206L55.3825 76H60.0445V77.566H55.0405ZM67.5802 77.566H64.3042V85H62.5582V76H63.8722L64.3042 76.738L65.5822 76H67.5802V77.566ZM71.3003 76V85H69.5543V76H71.3003ZM69.4643 73.786V71.86H71.3903V73.786H69.4643ZM79.9193 85.09H77.2013L75.9233 84.352V88.6H74.1773V75.91H75.4913L75.9233 76.648L77.2013 75.91H79.9193L82.0073 77.116V83.884L79.9193 85.09ZM75.9233 77.476V83.524H80.2613V77.476H75.9233ZM84.1624 77.566V76H85.8184V74.488L87.5644 73.48V76H89.7244V77.566H87.5644V83.434H89.7244V85H87.9064L85.8184 83.794V77.566H84.1624Z" fill="#FFFDFD"/>
<path d="M74.8909 4.7749C74.4543 2.48295 72.6808 0.627558 70.4161 0.136426C70.307 0.109141 70.1978 0.109141 70.0614 0.0818554C70.0341 0.0818554 70.0068 0.0272851 69.9795 0H19.9386C19.9113 0.0272851 19.884 0.0818554 19.8295 0.0818554C17.5648 0.463847 15.6548 2.26467 15.1364 4.55662C15.1091 4.63847 15.0546 4.74761 15 4.85675V55.0341C15.0273 55.0887 15.0819 55.116 15.0819 55.1705C15.6276 57.6808 17.1555 59.236 19.6385 59.8636C19.7203 59.8909 19.7749 59.9454 19.8295 60H70.0614C70.116 59.9727 70.1433 59.9181 70.1978 59.8909C72.6808 59.3179 74.2087 57.8172 74.8363 55.3342C74.8636 55.2524 74.8363 55.1433 74.8636 55.0614C74.8636 55.0341 74.9181 55.0068 74.9454 54.9795V4.93861C74.9454 4.88404 74.8909 4.85675 74.8909 4.7749ZM49.7885 33.2606H49.4884C47.2237 33.2606 44.9318 33.2606 42.6671 33.2606C42.558 33.2606 42.4488 33.2606 42.3397 33.2606C42.3397 33.2879 42.3124 33.2879 42.3124 33.3151C42.3124 33.4243 42.3124 33.5334 42.3124 33.6426V54.6794H36.337V33.2879H28.8336V28.513H49.7613V33.2606H49.7885ZM69.925 47.5307C69.8704 48.4584 69.734 49.3588 69.352 50.2319C69.2428 50.5048 69.161 50.7503 69.0246 51.0232C68.5334 52.06 67.7149 52.7967 66.7599 53.397C65.6685 54.0791 64.4679 54.4611 63.2128 54.7067C61.8213 54.9795 60.4297 55.0614 59.0109 55.0068C58.3288 54.9795 57.6467 54.9795 56.9645 54.8977C55.3547 54.7067 53.7722 54.352 52.2988 53.6426C52.2169 53.6153 52.1078 53.4789 52.1078 53.397C52.1078 51.6235 52.1078 49.8499 52.1078 48.0764C52.1078 48.0491 52.1078 48.0218 52.1078 47.9673C52.5443 48.2674 52.9809 48.5675 53.4175 48.8131C54.4816 49.4407 55.6548 49.8772 56.8554 50.1501C57.8922 50.3956 58.9291 50.4229 59.9659 50.3684C60.7572 50.3411 61.5484 50.1501 62.2578 49.7954C62.8854 49.4679 63.4038 49.0314 63.5402 48.2947C63.6767 47.6398 63.6221 46.985 63.2401 46.412C62.6944 45.5935 61.9304 45.075 61.0846 44.6385C60.1296 44.1746 59.1746 43.7654 58.1924 43.3288C56.7463 42.6739 55.3274 41.9645 54.1542 40.8731C53.1992 39.9727 52.4898 38.9086 52.1623 37.6262C51.9714 36.8622 51.9168 36.0982 51.9441 35.3342C51.9714 33.4516 52.6535 31.8417 53.9905 30.5048C55.0819 29.4134 56.4188 28.7585 57.8922 28.3765C58.9018 28.131 59.9113 27.94 60.9482 27.9127C61.6849 27.9127 62.4216 27.8308 63.131 27.8581C64.2497 27.8854 65.3411 27.94 66.4325 28.2128C67.1419 28.4038 67.8786 28.5948 68.588 28.7585C68.7244 28.7858 68.779 28.8677 68.779 29.0314C68.779 30.7231 68.779 32.442 68.779 34.1337C68.779 34.1883 68.779 34.2428 68.7517 34.3247C68.5334 34.1883 68.3424 34.0791 68.1514 33.97C67.2783 33.4789 66.3506 33.1514 65.3956 32.9059C64.3315 32.6603 63.2674 32.4966 62.176 32.5239C61.4393 32.5512 60.6753 32.6603 59.9932 32.9059C59.1473 33.206 58.4652 33.6971 58.1651 34.5975C57.9195 35.307 58.1105 35.9072 58.5471 36.4802C59.0928 37.1896 59.8295 37.6808 60.6207 38.0628C61.6849 38.5812 62.7763 39.0177 63.8131 39.5089C65.0136 40.0819 66.2142 40.6548 67.2237 41.5007C68.0969 42.2374 68.8881 43.0559 69.3247 44.1473C69.5703 44.8022 69.7885 45.4843 69.7885 46.221C69.8977 46.6576 69.9523 47.0941 69.925 47.5307Z" fill="#B5E93B"/>
</svg>
